<svg width="45" height="21" viewBox="0 0 45 21" fill="none" xmlns="http://www.w3.org/2000/svg">
<g clip-path="url(#clip0_229_2)">
<path d="M45 0H0V21H45V0Z" fill="#1E1E1E"/>
<path d="M45 0H0V21H45V0Z" fill="black"/>
<path d="M3.92773 12.8558V8.14423H7.12108C8.25441 8.14423 8.78775 8.68942 8.78775 9.38269C8.78775 9.90769 8.47441 10.2442 8.02775 10.399C8.52775 10.5471 8.93441 10.9038 8.93441 11.5567C8.93441 12.3038 8.40775 12.8558 7.26775 12.8558H3.92773ZM5.54107 11.9067H6.74108C7.09441 11.9067 7.30108 11.7048 7.30108 11.3817C7.30108 11.0788 7.09441 10.8769 6.74108 10.8769H5.54107V11.9067ZM5.54107 9.975H6.66775C6.98775 9.975 7.17441 9.8 7.17441 9.51057C7.17441 9.24134 6.98775 9.05961 6.66775 9.05961H5.54107V9.975ZM11.7233 12.8558V8.14423H13.3433V11.099H13.3499L15.0566 8.14423H16.8166V12.8558H15.1966V9.90096H15.1899L13.4899 12.8558H11.7233ZM19.7793 12.8558V8.14423H21.4193V9.8673H23.0793V8.14423H24.7259V12.8558H23.0793V10.9173H21.4193V12.8558H19.7793ZM27.6856 12.8558V8.14423H29.3055V11.099H29.3122L31.0189 8.14423H32.7789V12.8558H31.1589V9.90096H31.1522L29.4522 12.8558H27.6856ZM35.5215 11.5433C36.2882 11.4894 36.5149 11.2606 36.5816 9.83365L36.6482 8.14423H41.0749V12.8558H39.4349V9.22788H37.9949L37.9682 9.98173C37.8816 12.2836 37.2615 12.8894 35.8682 12.8894H35.7616L35.5215 11.5433Z" fill="white"/>
</g>
<defs>
<clipPath id="clip0_229_2">
<rect width="45" height="21" fill="white"/>
</clipPath>
</defs>
</svg>
